# xmcd
#
# Track frame offsets:
#	150
#	18749
#	36133
#	51306
#	64881
#	82887
#	99073
#	113331
#	127270
#	142150
#	154419
#	172480
#	186769
#
# Disc length: 2648 seconds
#
# Revision: 0
# Processed by: cddbd v1.5.2PL0 Copyright (c) Steve Scherf et al.
# Submitted via: EasyCDDAExtractor 16.0.6.1
#
DISCID=b90a560d
DTITLE=Συλλογικός δίσκος - Ρεμπέτες και άγγελοι 1
DYEAR=2009
DGENRE=Ρεμπέτικη
TTITLE0=Αβράμογλου Σταύρος-Ιακωβίδης Αγάθωνας - Το παλιό μου μπουζουκάκι [Μ. Χ
TTITLE0=ιώτης-Δ. Σέμσης-Χ. Βασιλειάδης]
TTITLE1=Ιακωβίδης Αγάθωνας-Αβράμογλου Σταύρος - Για σένα μαυρομάτα μου [Σ. Περ
TTITLE1=ιστέρης-Μ. Μάτσας]
TTITLE2=Ιακωβίδης Αγάθωνας - Ψηλά τη χτίζεις τη φωλιά [Αντ. Βαμβακάρης-Δημ. Μπ
TTITLE2=αρούσης]
TTITLE3=Ξηντάρης Γιώργος - Κάπελα καταραμένε [Γαβριήλ Μαρίνος-Σ. Παγιουμτζής]
TTITLE4=Αβράμογλου Σταύρος - Η παράγκα [Γιώργος Τζώρτζης]
TTITLE5=Λαζάρου Έλλη - Βαριά μεσάνυχτα [Τάκης Λαβίδας-Κώστας Μάνεσης]
TTITLE6=Τσέρτος Μπάμπης - Το ξυράφι και τ' ακόνι [Τόλης Χάρμας-Γιώργος Μαλλίδη
TTITLE6=ς]
TTITLE7=Πανωραία - Εσύ είσαι τρελλοκόριτσο [Δ. Γκόγκος-Δ. Σέμσης]
TTITLE8=Ραζέλη Αφεντούλα - Μάχαιραν έδωσες [Γ. Λαύκας-Κώστας Μάνεσης]
TTITLE9=Αβράμογλου Σταύρος - Μπορεί να έφυγες [Π. Γαβαλάς-Β. Βασιλειάδης]
TTITLE10=Λεμπέσης Γιάννης - Όσο κι αν περνάει ο χρόνος [Γιάννης Λεμπέσης]
TTITLE11=Ζήλου Βάσια - Δεν είναι όνειρο η ζωή [Βασ. Τσιτσάνης]
TTITLE12=Αβράμογλου Σταύρος - Περασμένα, ξεχασμένα [Οδ. Μοσχονάς-Δ. Σέμσης]
EXTD=
EXTT0=
EXTT1=
EXTT2=
EXTT3=
EXTT4=
EXTT5=
EXTT6=
EXTT7=
EXTT8=
EXTT9=
EXTT10=
EXTT11=
EXTT12=
PLAYORDER=
